<svg width="238" height="26" viewBox="0 0 238 26" fill="none" xmlns="http://www.w3.org/2000/svg">
<path d="M4.18639 25.1632C3.64274 25.1632 3.2187 25.0218 2.91426 24.7391C2.63156 24.4564 2.40323 24.0432 2.22926 23.4996V21.7382C2.22926 19.868 2.32712 17.9979 2.52283 16.1277C2.74029 14.2576 2.84902 12.3875 2.84902 10.5173C2.84902 10.0824 2.83815 9.61485 2.8164 9.1147C2.8164 8.61454 2.76203 8.06002 2.6533 7.45114C2.1314 7.32066 1.68561 7.12495 1.31593 6.864C0.946254 6.60305 0.761414 6.20075 0.761414 5.6571C0.761414 5.06996 0.978872 4.60243 1.41379 4.25449C1.84871 3.88481 2.40323 3.61299 3.07735 3.43902C3.75147 3.24331 4.45821 3.11284 5.19757 3.0476C5.95868 2.96061 6.66542 2.91712 7.3178 2.91712C7.97017 2.89538 8.4812 2.8845 8.85088 2.8845C10.2861 2.8845 11.6778 3.0476 13.0261 3.37379C14.3961 3.67823 15.5921 4.24362 16.6142 5.06997C17.658 5.89631 18.3973 7.1032 18.8322 8.69065V10.028C18.8322 10.202 18.8322 10.3868 18.8322 10.5825C18.854 10.7783 18.8649 10.9631 18.8649 11.1371C18.8649 11.2893 18.854 11.4524 18.8322 11.6263C18.8105 11.8003 18.767 11.9634 18.7018 12.1156C18.2886 13.0724 17.7015 13.8336 16.9403 14.3989C16.201 14.9426 15.3964 15.421 14.5266 15.8342C14.3743 15.8777 14.146 15.9538 13.8416 16.0625C13.5371 16.1495 13.3849 16.2691 13.3849 16.4213V16.5844C13.9068 16.9758 14.3961 17.4108 14.8527 17.8892C15.3312 18.3676 15.7987 18.8351 16.2554 19.2918C16.7555 19.7702 17.2013 20.3247 17.5927 20.9553C18.0059 21.5642 18.2125 22.1514 18.2125 22.7167C18.2125 23.2821 18.0494 23.7279 17.7232 24.0541C17.397 24.3586 16.9512 24.5108 16.3858 24.5108C16.1249 24.5108 15.8531 24.4564 15.5704 24.3477C15.2877 24.0432 15.0267 23.7714 14.7875 23.5322C14.57 23.2713 14.3417 22.9777 14.1025 22.6515C13.8633 22.2818 13.548 21.8795 13.1566 21.4446C12.7869 20.9879 12.3955 20.5639 11.9823 20.1725C11.5909 19.7593 11.2321 19.4331 10.9059 19.1939C10.6884 18.9765 10.3513 18.7264 9.89468 18.4437C9.45977 18.1392 9.0031 17.8239 8.52469 17.4977C8.06803 17.1715 7.6766 16.8236 7.35041 16.4539C7.02423 16.0843 6.86113 15.7037 6.86113 15.3123C6.86113 14.8991 7.06772 14.562 7.48089 14.3011C7.89406 14.0401 8.41596 13.8227 9.04659 13.6487C9.69897 13.453 10.384 13.2573 11.1016 13.0616C11.8409 12.8659 12.5259 12.6375 13.1566 12.3766C13.8089 12.1156 14.3417 11.7894 14.7549 11.398C15.1681 10.9848 15.3746 10.4738 15.3746 9.86493C15.3746 9.06033 15.1137 8.44057 14.5918 8.00566C14.0916 7.57074 13.461 7.2663 12.6999 7.09233C11.9605 6.89662 11.2103 6.78789 10.4492 6.76614C9.6881 6.72265 9.04659 6.7009 8.52469 6.7009H6.92637L6.79589 6.83138L5.98042 21.412C5.95868 21.7164 5.93693 22.0861 5.91519 22.521C5.89344 22.9342 5.8282 23.3474 5.71947 23.7605C5.63249 24.152 5.4694 24.489 5.23019 24.7717C4.99099 25.0327 4.64305 25.1632 4.18639 25.1632Z" fill="black"/>
<path d="M30.9692 25.4893C29.4035 25.4893 27.9574 25.2501 26.6309 24.7717C25.3262 24.2716 24.2715 23.4887 23.4669 22.4232C22.6623 21.3359 22.26 19.9333 22.26 18.2153C22.26 16.9106 22.4666 15.6385 22.8798 14.3989C23.3147 13.1594 23.9344 12.0395 24.739 11.0392C25.5436 10.0172 26.5113 9.21255 27.6421 8.62541C28.7729 8.01653 30.045 7.71209 31.4585 7.71209C32.4153 7.71209 33.3069 7.9078 34.1333 8.29923C34.9814 8.66891 35.6555 9.22343 36.1556 9.96279C36.6775 10.6804 36.9385 11.5611 36.9385 12.6049C36.9385 13.6052 36.7319 14.562 36.3187 15.4754C35.9056 16.3887 35.3402 17.2042 34.6225 17.9218C33.9049 18.6394 33.0895 19.2048 32.1761 19.618C31.2846 20.0094 30.3495 20.2051 29.3709 20.2051C29.2187 20.2051 28.8816 20.1725 28.3597 20.1072C27.8378 20.0203 27.4247 19.9333 27.1202 19.8463C26.9028 19.8028 26.7288 19.7158 26.5983 19.5853C26.5548 19.5636 26.4787 19.531 26.37 19.4875C26.2613 19.4222 26.1851 19.3896 26.1417 19.3896C26.2939 20.0203 26.6092 20.553 27.0876 20.9879C27.5878 21.4011 28.1531 21.7056 28.7838 21.9013C29.4362 22.097 30.0559 22.1948 30.6431 22.1948C31.0562 22.1948 31.4694 22.1731 31.8826 22.1296C32.3175 22.0644 32.7742 22.0317 33.2526 22.0317C33.731 22.0317 34.1441 22.1622 34.4921 22.4232C34.84 22.6841 35.014 23.1082 35.014 23.6953C35.014 24.1737 34.8618 24.5434 34.5573 24.8043C34.2746 25.0653 33.9049 25.2393 33.4483 25.3263C33.0134 25.4132 32.5676 25.4567 32.1109 25.4567C31.676 25.4785 31.2954 25.4893 30.9692 25.4893ZM29.3709 16.4213C30.0233 16.4213 30.6648 16.3017 31.2954 16.0625C31.9478 15.8016 32.4806 15.421 32.8937 14.9208C33.3287 14.4207 33.5461 13.8009 33.5461 13.0616C33.5461 12.4309 33.3504 11.9308 32.959 11.5611C32.5893 11.1914 32.0892 11.0066 31.4585 11.0066C30.8931 11.0066 30.2951 11.1588 29.6645 11.4633C29.0339 11.7677 28.4358 12.1591 27.8705 12.6375C27.3268 13.1159 26.881 13.6378 26.5331 14.2032C26.1851 14.7469 26.0112 15.2797 26.0112 15.8016V15.932C26.5766 16.019 27.142 16.1277 27.7074 16.2582C28.2728 16.3669 28.8273 16.4213 29.3709 16.4213Z" fill="black"/>
<path d="M47.5628 24.5108C45.9971 24.5108 44.6815 24.1302 43.6159 23.3691C42.5721 22.5863 41.7784 21.5751 41.2347 20.3356C40.7128 19.0743 40.4519 17.7261 40.4519 16.2908C40.4519 14.6599 40.8107 13.1594 41.5283 11.7894C42.2677 10.4195 43.2789 9.32128 44.5619 8.49494C45.8666 7.64685 47.3453 7.22281 48.998 7.22281C49.4982 7.22281 50.0527 7.27717 50.6616 7.3859C51.2922 7.47288 51.9011 7.64685 52.4882 7.9078C53.0754 8.14701 53.5538 8.47319 53.9235 8.88637C54.3149 9.29954 54.5106 9.83231 54.5106 10.4847C54.5106 10.9631 54.3366 11.3328 53.9887 11.5937C53.6408 11.8547 53.2167 11.9852 52.7166 11.9852C52.1947 11.9852 51.7271 11.8547 51.314 11.5937C50.9008 11.311 50.4876 11.0392 50.0744 10.7783C49.6613 10.4956 49.1937 10.3542 48.6718 10.3542C47.9542 10.3542 47.3018 10.5717 46.7147 11.0066C46.1276 11.4415 45.6274 11.996 45.2142 12.6701C44.8011 13.3443 44.4749 14.0619 44.2357 14.823C44.0182 15.5624 43.9095 16.2582 43.9095 16.9106C43.9095 18.0196 44.1269 18.8786 44.5619 19.4875C45.0185 20.0746 45.6274 20.4878 46.3885 20.727C47.1714 20.9445 48.0412 21.0532 48.998 21.0532C49.8896 21.0532 50.7159 20.8792 51.4771 20.5313C52.2599 20.1834 53.0428 19.8245 53.8256 19.4549H54.478C55.4565 19.4549 55.9458 19.9441 55.9458 20.9227C55.9458 21.5098 55.7175 22.01 55.2608 22.4232C54.8259 22.8363 54.2605 23.1843 53.5647 23.467C52.8688 23.7279 52.1294 23.9345 51.3466 24.0867C50.5637 24.239 49.8352 24.3477 49.1611 24.4129C48.487 24.4782 47.9542 24.5108 47.5628 24.5108Z" fill="black"/>
<path d="M60.9724 25.3263C60.581 25.3263 60.2874 25.1958 60.0917 24.9348C59.896 24.6739 59.7655 24.3694 59.7003 24.0215C59.6351 23.6518 59.5698 23.3256 59.5046 23.0429V20.6291C59.5046 19.4114 59.559 18.1827 59.6677 16.9432C59.7764 15.682 59.8308 14.4533 59.8308 13.2573C59.8308 12.6919 59.7764 12.1482 59.6677 11.6263C59.559 11.1044 59.5046 10.5717 59.5046 10.028V9.14732C59.6786 8.82113 59.9069 8.58192 60.1896 8.4297C60.494 8.27748 60.8093 8.20137 61.1355 8.20137C61.6139 8.20137 61.9727 8.34272 62.212 8.62541C62.4512 8.88637 62.6142 9.20168 62.7012 9.57136C62.81 9.94104 62.9078 10.2781 62.9948 10.5825C63.0818 10.8652 63.2231 11.0283 63.4188 11.0718C64.0495 10.6587 64.6475 10.2564 65.2129 9.86493C65.8 9.47351 66.4089 9.15819 67.0395 8.91898C67.6919 8.65803 68.4095 8.52756 69.1924 8.52756C69.5838 8.52756 69.997 8.61454 70.4319 8.78851C70.8886 8.96248 71.28 9.21255 71.6062 9.53874C71.9324 9.84318 72.0955 10.2237 72.0955 10.6804C72.0955 11.2458 71.8671 11.659 71.4105 11.9199C70.9755 12.1809 70.5624 12.3113 70.1709 12.3113C69.91 12.3113 69.6599 12.257 69.4207 12.1482C69.1815 12.0395 68.9314 11.9852 68.6705 11.9852C67.9094 11.9852 67.1918 12.1809 66.5176 12.5723C65.8653 12.942 65.289 13.3878 64.7888 13.9097C64.2887 14.4316 63.8864 14.9208 63.5819 15.3775C63.495 15.5732 63.4297 15.8994 63.3862 16.3561C63.3427 16.8127 63.3101 17.3346 63.2884 17.9218C63.2666 18.4872 63.2449 19.0417 63.2231 19.5853C63.2231 20.129 63.2123 20.5965 63.1905 20.9879C63.1688 21.7056 63.0927 22.4014 62.9622 23.0756C62.8535 23.7279 62.6469 24.2716 62.3424 24.7065C62.038 25.1197 61.5813 25.3263 60.9724 25.3263Z" fill="black"/>
<path d="M77.4539 24.6739C76.5188 24.6739 75.7359 24.4782 75.1053 24.0867C74.4964 23.6736 74.018 23.1408 73.6701 22.4884C73.3221 21.836 73.0721 21.1293 72.9198 20.3682C72.7894 19.5853 72.7241 18.8134 72.7241 18.0523V16.4539C72.7241 16.3887 72.7567 16.1386 72.822 15.7037C72.8872 15.247 72.9525 14.7578 73.0177 14.2359C73.1047 13.714 73.1699 13.3225 73.2134 13.0616C73.2786 12.7571 73.3548 12.3766 73.4417 11.9199C73.5505 11.4415 73.6809 10.974 73.8332 10.5173C74.0071 10.0389 74.2246 9.64747 74.4855 9.34303C74.7682 9.01684 75.1053 8.85375 75.4967 8.85375C76.0839 8.85375 76.5297 9.02771 76.8341 9.37565C77.1603 9.72358 77.3234 10.1476 77.3234 10.6478C77.3234 11.061 77.2581 11.4633 77.1277 11.8547C77.0189 12.2461 76.9211 12.6484 76.8341 13.0616C76.6819 13.8879 76.5297 14.7143 76.3774 15.5406C76.247 16.3669 76.1817 17.2042 76.1817 18.0523C76.1817 18.3567 76.2035 18.7481 76.247 19.2265C76.2905 19.7049 76.4101 20.129 76.6058 20.4987C76.8015 20.8683 77.1385 21.0532 77.617 21.0532C77.9866 21.0532 78.4216 20.814 78.9217 20.3356C79.4436 19.8572 79.9872 19.2374 80.5526 18.4763C81.1398 17.7152 81.7269 16.8888 82.3141 15.9973C82.9012 15.0839 83.4448 14.2032 83.945 13.3551C84.4669 12.4853 84.9127 11.7242 85.2824 11.0718C85.6521 10.3977 85.913 9.93017 86.0652 9.66922C86.2392 9.43001 86.424 9.2343 86.6197 9.08208C86.8155 8.92986 87.0655 8.85375 87.37 8.85375C88.392 8.85375 89.0009 9.33216 89.1966 10.289V11.4633C89.1966 12.4201 89.164 13.3769 89.0988 14.3337C89.0553 15.2688 89.0335 16.1821 89.0335 17.0737V18.9982C89.0988 19.3461 89.2401 19.6614 89.4576 19.9441C89.675 20.2268 89.8708 20.5095 90.0447 20.7922C90.2404 21.0532 90.3383 21.3685 90.3383 21.7382C90.3383 22.2383 90.1861 22.6624 89.8816 23.0103C89.5772 23.3582 89.1749 23.5322 88.6747 23.5322C88.0224 23.5322 87.5004 23.3148 87.109 22.8798C86.7176 22.4232 86.4132 21.8904 86.1957 21.2815C86.0652 20.8901 85.913 20.3899 85.739 19.7811C85.5868 19.1504 85.4346 18.5307 85.2824 17.9218C84.9562 18.4872 84.5865 19.0526 84.1733 19.618C83.7819 20.1616 83.3687 20.6944 82.9338 21.2163C82.238 22.0861 81.4225 22.8798 80.4874 23.5975C79.5523 24.3151 78.5412 24.6739 77.4539 24.6739Z" fill="black"/>
<path d="M101.635 24.3477C101.004 24.3477 100.548 24.065 100.265 23.4996C99.9822 22.9125 99.8408 22.3253 99.8408 21.7382C100.319 19.3244 100.624 16.9541 100.754 14.6273C100.885 12.2787 100.961 9.78882 100.982 7.15757C100.134 7.17931 99.4276 7.21193 98.8622 7.25542C98.2969 7.29892 97.7315 7.32066 97.1661 7.32066H95.0785C94.5566 7.21193 94.1434 7.01622 93.839 6.73352C93.5563 6.45083 93.4149 6.03766 93.4149 5.49401C93.4149 4.75465 93.6215 4.26537 94.0347 4.02616C94.4696 3.76521 94.9806 3.63474 95.5677 3.63474C95.6982 3.63474 95.8287 3.63474 95.9592 3.63474C96.0896 3.63474 96.2201 3.64561 96.3506 3.66735C96.7638 3.62386 97.3944 3.5695 98.2425 3.50426C99.0906 3.41728 100.004 3.34117 100.982 3.27593C101.961 3.18895 102.863 3.11284 103.69 3.0476C104.516 2.98236 105.125 2.92799 105.516 2.8845H106.821C107.3 2.8845 107.876 2.91712 108.55 2.98236C109.246 3.0476 109.931 3.18895 110.605 3.4064C111.279 3.60212 111.834 3.90656 112.269 4.31973C112.725 4.7329 112.954 5.28742 112.954 5.98329C112.954 6.39646 112.801 6.80963 112.497 7.22281C112.192 7.61423 111.801 7.80995 111.323 7.80995C111.062 7.80995 110.79 7.72296 110.507 7.54899C110.224 7.35328 109.953 7.22281 109.692 7.15757C109.126 6.9836 108.539 6.88575 107.93 6.864C107.321 6.84225 106.734 6.83138 106.169 6.83138H104.897L104.766 6.92924C104.766 7.21193 104.755 7.6686 104.734 8.29923C104.712 8.92986 104.69 9.64747 104.668 10.4521C104.647 11.2349 104.625 12.0178 104.603 12.8006C104.603 13.5835 104.603 14.2576 104.603 14.823C104.603 15.7581 104.538 16.704 104.407 17.6608C104.299 18.5959 104.212 19.3026 104.146 19.7811C104.103 20.129 104.016 20.553 103.886 21.0532C103.755 21.5316 103.614 21.9883 103.462 22.4232C103.309 22.8581 103.146 23.206 102.972 23.467C102.82 23.7279 102.635 23.9454 102.418 24.1194C102.2 24.2716 101.939 24.3477 101.635 24.3477Z" fill="black"/>
<path d="M124.557 25.4893C122.992 25.4893 121.545 25.2501 120.219 24.7717C118.914 24.2716 117.859 23.4887 117.055 22.4232C116.25 21.3359 115.848 19.9333 115.848 18.2153C115.848 16.9106 116.055 15.6385 116.468 14.3989C116.903 13.1594 117.522 12.0395 118.327 11.0392C119.132 10.0172 120.099 9.21255 121.23 8.62541C122.361 8.01653 123.633 7.71209 125.046 7.71209C126.003 7.71209 126.895 7.9078 127.721 8.29923C128.569 8.66891 129.243 9.22343 129.744 9.96279C130.266 10.6804 130.526 11.5611 130.526 12.6049C130.526 13.6052 130.32 14.562 129.907 15.4754C129.494 16.3887 128.928 17.2042 128.211 17.9218C127.493 18.6394 126.677 19.2048 125.764 19.618C124.873 20.0094 123.937 20.2051 122.959 20.2051C122.807 20.2051 122.47 20.1725 121.948 20.1072C121.426 20.0203 121.013 19.9333 120.708 19.8463C120.491 19.8028 120.317 19.7158 120.186 19.5853C120.143 19.5636 120.067 19.531 119.958 19.4875C119.849 19.4222 119.773 19.3896 119.73 19.3896C119.882 20.0203 120.197 20.553 120.676 20.9879C121.176 21.4011 121.741 21.7056 122.372 21.9013C123.024 22.097 123.644 22.1948 124.231 22.1948C124.644 22.1948 125.057 22.1731 125.471 22.1296C125.905 22.0644 126.362 22.0317 126.841 22.0317C127.319 22.0317 127.732 22.1622 128.08 22.4232C128.428 22.6841 128.602 23.1082 128.602 23.6953C128.602 24.1737 128.45 24.5434 128.145 24.8043C127.863 25.0653 127.493 25.2393 127.036 25.3263C126.601 25.4132 126.156 25.4567 125.699 25.4567C125.264 25.4785 124.883 25.4893 124.557 25.4893ZM122.959 16.4213C123.611 16.4213 124.253 16.3017 124.883 16.0625C125.536 15.8016 126.069 15.421 126.482 14.9208C126.917 14.4207 127.134 13.8009 127.134 13.0616C127.134 12.4309 126.938 11.9308 126.547 11.5611C126.177 11.1914 125.677 11.0066 125.046 11.0066C124.481 11.0066 123.883 11.1588 123.252 11.4633C122.622 11.7677 122.024 12.1591 121.458 12.6375C120.915 13.1159 120.469 13.6378 120.121 14.2032C119.773 14.7469 119.599 15.2797 119.599 15.8016V15.932C120.165 16.019 120.73 16.1277 121.295 16.2582C121.861 16.3669 122.415 16.4213 122.959 16.4213Z" fill="black"/>
<path d="M141.151 24.5108C139.585 24.5108 138.269 24.1302 137.204 23.3691C136.16 22.5863 135.366 21.5751 134.823 20.3356C134.301 19.0743 134.04 17.7261 134.04 16.2908C134.04 14.6599 134.399 13.1594 135.116 11.7894C135.856 10.4195 136.867 9.32128 138.15 8.49494C139.455 7.64685 140.933 7.22281 142.586 7.22281C143.086 7.22281 143.641 7.27717 144.25 7.3859C144.88 7.47288 145.489 7.64685 146.076 7.9078C146.663 8.14701 147.142 8.47319 147.511 8.88637C147.903 9.29954 148.099 9.83231 148.099 10.4847C148.099 10.9631 147.925 11.3328 147.577 11.5937C147.229 11.8547 146.805 11.9852 146.305 11.9852C145.783 11.9852 145.315 11.8547 144.902 11.5937C144.489 11.311 144.076 11.0392 143.662 10.7783C143.249 10.4956 142.782 10.3542 142.26 10.3542C141.542 10.3542 140.89 10.5717 140.303 11.0066C139.716 11.4415 139.215 11.996 138.802 12.6701C138.389 13.3443 138.063 14.0619 137.824 14.823C137.606 15.5624 137.497 16.2582 137.497 16.9106C137.497 18.0196 137.715 18.8786 138.15 19.4875C138.606 20.0746 139.215 20.4878 139.976 20.727C140.759 20.9445 141.629 21.0532 142.586 21.0532C143.478 21.0532 144.304 20.8792 145.065 20.5313C145.848 20.1834 146.631 19.8245 147.414 19.4549H148.066C149.045 19.4549 149.534 19.9441 149.534 20.9227C149.534 21.5098 149.305 22.01 148.849 22.4232C148.414 22.8363 147.848 23.1843 147.153 23.467C146.457 23.7279 145.717 23.9345 144.935 24.0867C144.152 24.239 143.423 24.3477 142.749 24.4129C142.075 24.4782 141.542 24.5108 141.151 24.5108Z" fill="black"/>
<path d="M154.887 24.837C154.278 24.837 153.821 24.6304 153.517 24.2172C153.234 23.7823 153.093 23.2821 153.093 22.7167C153.093 21.412 153.169 20.0855 153.321 18.7372C153.495 17.389 153.582 16.0843 153.582 14.823C153.582 12.6484 153.495 10.5282 153.321 8.46232C153.169 6.39646 153.093 4.27624 153.093 2.10165V1.25356C153.245 0.905629 153.451 0.666424 153.712 0.535948C153.995 0.383727 154.289 0.307617 154.593 0.307617C155.093 0.307617 155.495 0.481584 155.8 0.829517C156.126 1.17745 156.376 1.6015 156.55 2.10165C156.724 2.60181 156.844 3.10196 156.909 3.60212C156.996 4.10227 157.039 4.51544 157.039 4.84163V15.6711L157.235 15.8668L157.268 15.8342C157.855 15.247 158.409 14.5838 158.931 13.8444C159.475 13.1051 160.03 12.3983 160.595 11.7242C161.182 11.0283 161.824 10.4521 162.519 9.99541C163.237 9.53874 164.063 9.31041 164.998 9.31041C165.825 9.31041 166.532 9.52787 167.119 9.96279C167.728 10.3977 168.206 10.9631 168.554 11.659C168.902 12.3548 169.13 13.0833 169.239 13.8444L170.217 20.7596V21.7382C170.217 22.0861 170.196 22.4558 170.152 22.8472C170.109 23.2169 169.978 23.5322 169.761 23.7932C169.565 24.0541 169.217 24.1846 168.717 24.1846C168.152 24.1846 167.706 23.9671 167.38 23.5322C167.075 23.0756 166.858 22.521 166.727 21.8687C166.597 21.2163 166.51 20.5748 166.466 19.9441C166.423 19.3135 166.379 18.8134 166.336 18.4437C166.314 18.2915 166.281 18.0088 166.238 17.5956C166.216 17.1824 166.173 16.704 166.107 16.1604C166.042 15.6167 165.955 15.0948 165.847 14.5947C165.738 14.0728 165.596 13.6487 165.422 13.3225C165.27 12.9746 165.075 12.8006 164.835 12.8006C164.466 12.8006 164.096 12.9528 163.726 13.2573C163.357 13.5617 163.052 13.877 162.813 14.2032C161.682 15.682 160.595 17.2477 159.551 18.9003C158.529 20.5313 157.507 22.1296 156.485 23.6953C156.311 23.978 156.094 24.239 155.833 24.4782C155.572 24.7174 155.256 24.837 154.887 24.837Z" fill="black"/>
<path d="M177.561 25.3263C176.931 25.3263 176.441 25.1414 176.093 24.7717C175.745 24.3803 175.495 23.9019 175.343 23.3365C175.213 22.7494 175.126 22.1514 175.082 21.5425C175.06 20.9336 175.05 20.4117 175.05 19.9768V16.617C175.05 15.1818 175.126 13.7031 175.278 12.1809C175.43 10.6587 175.517 9.03859 175.539 7.32066C174.734 7.27717 174.104 7.12495 173.647 6.864C173.212 6.5813 172.995 6.01591 172.995 5.16782C172.995 4.51544 173.266 4.02616 173.81 3.69997C174.354 3.35204 174.952 3.13458 175.604 3.0476C176.452 2.85188 177.355 2.73228 178.311 2.68879C179.29 2.62355 180.214 2.5257 181.084 2.39522H181.215C182.106 2.39522 183.063 2.46046 184.085 2.59093C185.107 2.69966 186.097 2.928 187.053 3.27593C188.032 3.60212 188.88 4.0914 189.598 4.74378C190.315 5.37441 190.805 6.2225 191.065 7.28804V8.39708C191.065 9.61485 190.761 10.7674 190.152 11.8547C189.543 12.942 188.739 13.9097 187.738 14.7578C186.76 15.5841 185.683 16.2365 184.509 16.7149C183.357 17.1933 182.215 17.4325 181.084 17.4325C180.758 17.4325 180.432 17.4216 180.106 17.3999C179.779 17.3564 179.366 17.3238 178.866 17.302C178.888 18.3676 178.92 19.2809 178.964 20.042C179.007 20.8031 179.029 21.5425 179.029 22.2601C179.029 22.6515 178.996 23.0864 178.931 23.5648C178.888 24.0432 178.757 24.4564 178.54 24.8043C178.344 25.1523 178.018 25.3263 177.561 25.3263ZM178.866 13.3225H181.867C182.28 13.3225 182.791 13.1812 183.4 12.8985C184.031 12.594 184.65 12.2135 185.259 11.7568C185.89 11.2784 186.412 10.7783 186.825 10.2564C187.26 9.71271 187.477 9.20168 187.477 8.72327C187.477 8.20137 187.271 7.76645 186.858 7.41852C186.466 7.07059 186.01 6.80964 185.488 6.63567C184.966 6.4617 184.52 6.37472 184.15 6.37472H179.812L179.518 6.66829C179.41 7.49463 179.301 8.25574 179.192 8.9516C179.083 9.62573 178.996 10.3107 178.931 11.0066C178.888 11.7025 178.866 12.4744 178.866 13.3225Z" fill="black"/>
<path d="M203.511 25.8155C201.685 25.8155 200.054 25.4024 198.618 24.576C197.183 23.7497 196.052 22.608 195.226 21.151C194.4 19.6723 193.987 17.9979 193.987 16.1277C193.987 14.997 194.161 13.8118 194.509 12.5723C194.856 11.311 195.346 10.0933 195.976 8.91898C196.629 7.74471 197.401 6.67916 198.292 5.72234C199.206 4.74378 200.228 3.9718 201.358 3.4064C202.489 2.84101 203.696 2.55832 204.979 2.55832C205.958 2.55832 206.925 2.75403 207.882 3.14545C208.861 3.53688 209.665 4.12402 210.296 4.90687C210.948 5.66798 211.275 6.62479 211.275 7.77733V8.75589C211.122 9.12557 210.916 9.3539 210.655 9.44089C210.394 9.52787 210.1 9.57136 209.774 9.57136C209.317 9.57136 208.959 9.45176 208.698 9.21255C208.459 8.97335 208.252 8.67978 208.078 8.33185C207.904 7.98391 207.719 7.63598 207.523 7.28804C207.328 6.94011 207.056 6.64654 206.708 6.40734C206.382 6.16813 205.914 6.04853 205.305 6.04853C204.131 6.04853 203.076 6.3421 202.141 6.92924C201.228 7.49463 200.445 8.24486 199.793 9.17994C199.14 10.115 198.64 11.1262 198.292 12.2135C197.944 13.279 197.77 14.312 197.77 15.3123C197.77 16.0734 197.89 16.8562 198.129 17.6608C198.368 18.4437 198.705 19.183 199.14 19.8789C199.597 20.553 200.152 21.1075 200.804 21.5425C201.456 21.9556 202.196 22.1622 203.022 22.1622C204.022 22.1622 205.023 21.9774 206.023 21.6077C207.023 21.238 207.893 20.7161 208.632 20.042C208.98 19.7158 209.35 19.4005 209.742 19.0961C210.133 18.7916 210.579 18.6394 211.079 18.6394C211.557 18.6394 211.97 18.8025 212.318 19.1287C212.688 19.4331 212.873 19.8789 212.873 20.466C212.873 20.7053 212.808 20.9445 212.677 21.1837C212.547 21.4229 212.395 21.6512 212.221 21.8687C212.068 22.0644 211.894 22.2492 211.699 22.4232C211.503 22.5754 211.307 22.7385 211.111 22.9125C210.024 23.8475 208.85 24.5651 207.589 25.0653C206.327 25.5655 204.968 25.8155 203.511 25.8155Z" fill="black"/>
<path d="M224.64 25.4893C224.139 25.4893 223.563 25.4676 222.911 25.4241C222.28 25.4024 221.693 25.2719 221.149 25.0327C220.606 24.7935 220.203 24.3912 219.943 23.8258V22.521C219.943 22.0426 219.943 21.6186 219.943 21.2489C219.964 20.8792 220.019 20.4552 220.106 19.9768V10.9414C220.106 10.8761 220.073 10.6695 220.008 10.3216C219.964 9.95191 219.943 9.69096 219.943 9.53874C219.943 9.2343 219.888 8.92986 219.779 8.62541C219.692 8.32097 219.649 8.0274 219.649 7.74471C219.649 7.67947 219.627 7.58161 219.584 7.45114C219.562 7.29892 219.475 7.15757 219.323 7.02709C219.04 7.13582 218.801 7.22281 218.605 7.28804C218.409 7.33154 218.17 7.35328 217.888 7.35328C217.496 7.35328 217.094 7.17931 216.681 6.83138C216.289 6.4617 216.094 6.07027 216.094 5.6571C216.094 4.93949 216.322 4.3741 216.779 3.96092C217.235 3.52601 217.801 3.19982 218.475 2.98236C219.171 2.74316 219.866 2.56919 220.562 2.46046C221.28 2.35173 221.9 2.27562 222.422 2.23213C222.704 2.23213 223.085 2.22125 223.563 2.19951C224.042 2.15602 224.487 2.1234 224.901 2.10165C225.336 2.07991 225.575 2.06903 225.618 2.06903C227.119 2.11253 228.587 2.38435 230.022 2.8845C231.457 3.36291 232.751 4.05878 233.903 4.97211C235.078 5.86369 236.002 6.95098 236.676 8.23399C237.372 9.517 237.72 10.9631 237.72 12.5723C237.72 14.2685 237.35 15.8885 236.611 17.4325C235.893 18.9765 234.904 20.3573 233.642 21.5751C232.403 22.7929 231 23.7497 229.435 24.4455C227.891 25.1414 226.292 25.4893 224.64 25.4893ZM224.477 21.5098C225.607 21.5098 226.738 21.2489 227.869 20.727C229.021 20.2051 230.076 19.5092 231.033 18.6394C231.99 17.7478 232.762 16.7475 233.349 15.6385C233.936 14.5294 234.23 13.3986 234.23 12.2461C234.23 11.1371 233.925 10.1802 233.316 9.37565C232.707 8.57105 231.925 7.91867 230.968 7.41852C230.033 6.89662 229.032 6.51607 227.967 6.27686C226.901 6.01591 225.901 5.88544 224.966 5.88544C224.857 5.88544 224.727 5.88544 224.574 5.88544C224.444 5.86369 224.292 5.85282 224.118 5.85282C223.922 5.85282 223.737 5.87456 223.563 5.91805C223.389 5.96155 223.248 6.04853 223.139 6.179C223.465 7.76645 223.672 9.28867 223.759 10.7456C223.868 12.2026 223.922 13.7248 223.922 15.3123C223.922 16.1821 223.889 17.0737 223.824 17.987C223.781 18.8786 223.759 19.8028 223.759 20.7596V21.3468C223.955 21.4555 224.194 21.5098 224.477 21.5098Z" fill="black"/>
</svg>
