<svg width="237" height="26" viewBox="0 0 237 26" fill="none" xmlns="http://www.w3.org/2000/svg">
<path d="M3.42498 24.8555C2.88133 24.8555 2.45728 24.7142 2.15284 24.4315C1.87015 24.1488 1.64181 23.7356 1.46785 23.192V21.4306C1.46785 19.5604 1.5657 17.6903 1.76142 15.8201C1.97887 13.95 2.0876 12.0798 2.0876 10.2097C2.0876 9.77477 2.07673 9.30724 2.05499 8.80708C2.05499 8.30693 2.00062 7.7524 1.89189 7.14352C1.36999 7.01305 0.9242 6.81733 0.55452 6.55638C0.18484 6.29543 0 5.89313 0 5.34948C0 4.76235 0.217459 4.29481 0.652376 3.94688C1.08729 3.5772 1.64181 3.30537 2.31594 3.13141C2.99006 2.93569 3.6968 2.80522 4.43616 2.73998C5.19727 2.653 5.90401 2.6095 6.55638 2.6095C7.20876 2.58776 7.71979 2.57689 8.08947 2.57689C9.5247 2.57689 10.9164 2.73998 12.2647 3.06617C13.6347 3.37061 14.8307 3.936 15.8527 4.76235C16.8965 5.58869 17.6359 6.79559 18.0708 8.38304V9.72041C18.0708 9.89437 18.0708 10.0792 18.0708 10.2749C18.0926 10.4706 18.1034 10.6555 18.1034 10.8294C18.1034 10.9817 18.0926 11.1448 18.0708 11.3187C18.0491 11.4927 18.0056 11.6558 17.9403 11.808C17.5272 12.7648 16.94 13.5259 16.1789 14.0913C15.4396 14.635 14.635 15.1134 13.7651 15.5266C13.6129 15.57 13.3846 15.6462 13.0801 15.7549C12.7757 15.8419 12.6235 15.9615 12.6235 16.1137V16.2768C13.1454 16.6682 13.6347 17.1031 14.0913 17.5815C14.5697 18.06 15.0373 18.5275 15.4939 18.9842C15.9941 19.4626 16.4399 20.0171 16.8313 20.6477C17.2445 21.2566 17.4511 21.8437 17.4511 22.4091C17.4511 22.9745 17.288 23.4203 16.9618 23.7465C16.6356 24.0509 16.1898 24.2032 15.6244 24.2032C15.3635 24.2032 15.0916 24.1488 14.8089 24.0401C14.5262 23.7356 14.2653 23.4638 14.0261 23.2246C13.8086 22.9636 13.5803 22.6701 13.3411 22.3439C13.1019 21.9742 12.7866 21.5719 12.3952 21.137C12.0255 20.6803 11.634 20.2563 11.2209 19.8649C10.8294 19.4517 10.4706 19.1255 10.1445 18.8863C9.92699 18.6688 9.58993 18.4188 9.13327 18.1361C8.69835 17.8316 8.24169 17.5163 7.76328 17.1901C7.30662 16.8639 6.91519 16.516 6.589 16.1463C6.26281 15.7766 6.09972 15.3961 6.09972 15.0047C6.09972 14.5915 6.3063 14.2544 6.71948 13.9935C7.13265 13.7325 7.65455 13.5151 8.28518 13.3411C8.93756 13.1454 9.62255 12.9497 10.3402 12.754C11.0795 12.5582 11.7645 12.3299 12.3952 12.069C13.0475 11.808 13.5803 11.4818 13.9935 11.0904C14.4066 10.6772 14.6132 10.1662 14.6132 9.55731C14.6132 8.75272 14.3523 8.13296 13.8304 7.69804C13.3302 7.26312 12.6996 6.95868 11.9385 6.78471C11.1991 6.589 10.4489 6.48027 9.68779 6.45853C8.92668 6.41503 8.28518 6.39329 7.76328 6.39329H6.16496L6.03448 6.52376L5.21901 21.1044C5.19727 21.4088 5.17552 21.7785 5.15377 22.2134C5.13203 22.6266 5.06679 23.0398 4.95806 23.4529C4.87108 23.8444 4.70798 24.1814 4.46878 24.4641C4.22957 24.7251 3.88164 24.8555 3.42498 24.8555Z" fill="white"/>
<path d="M30.2078 25.1817C28.6421 25.1817 27.196 24.9425 25.8695 24.4641C24.5648 23.964 23.5101 23.1811 22.7055 22.1156C21.9009 21.0283 21.4986 19.6257 21.4986 17.9077C21.4986 16.603 21.7052 15.3308 22.1184 14.0913C22.5533 12.8518 23.173 11.7319 23.9776 10.7316C24.7822 9.70953 25.7499 8.90494 26.8807 8.3178C28.0115 7.70891 29.2836 7.40447 30.6971 7.40447C31.6539 7.40447 32.5455 7.60018 33.3719 7.99161C34.2199 8.36129 34.8941 8.91581 35.3942 9.65517C35.9161 10.3728 36.1771 11.2535 36.1771 12.2973C36.1771 13.2976 35.9705 14.2544 35.5573 15.1677C35.1441 16.0811 34.5787 16.8965 33.8611 17.6142C33.1435 18.3318 32.328 18.8972 31.4147 19.3103C30.5231 19.7018 29.5881 19.8975 28.6095 19.8975C28.4573 19.8975 28.1202 19.8649 27.5983 19.7996C27.0764 19.7126 26.6632 19.6257 26.3588 19.5387C26.1413 19.4952 25.9674 19.4082 25.8369 19.2777C25.7934 19.256 25.7173 19.2234 25.6086 19.1799C25.4998 19.1146 25.4237 19.082 25.3802 19.082C25.5325 19.7126 25.8478 20.2454 26.3262 20.6803C26.8263 21.0935 27.3917 21.3979 28.0224 21.5937C28.6747 21.7894 29.2945 21.8872 29.8816 21.8872C30.2948 21.8872 30.708 21.8655 31.1212 21.822C31.5561 21.7568 32.0127 21.7241 32.4911 21.7241C32.9696 21.7241 33.3827 21.8546 33.7307 22.1156C34.0786 22.3765 34.2526 22.8006 34.2526 23.3877C34.2526 23.8661 34.1003 24.2358 33.7959 24.4967C33.5132 24.7577 33.1435 24.9316 32.6869 25.0186C32.2519 25.1056 31.8061 25.1491 31.3495 25.1491C30.9146 25.1709 30.534 25.1817 30.2078 25.1817ZM28.6095 16.1137C29.2619 16.1137 29.9034 15.9941 30.534 15.7549C31.1864 15.4939 31.7192 15.1134 32.1323 14.6132C32.5673 14.1131 32.7847 13.4933 32.7847 12.754C32.7847 12.1233 32.589 11.6232 32.1976 11.2535C31.8279 10.8838 31.3277 10.699 30.6971 10.699C30.1317 10.699 29.5337 10.8512 28.9031 11.1556C28.2724 11.4601 27.6744 11.8515 27.109 12.3299C26.5654 12.8083 26.1196 13.3302 25.7717 13.8956C25.4237 14.4393 25.2498 14.972 25.2498 15.4939V15.6244C25.8152 15.7114 26.3806 15.8201 26.9459 15.9506C27.5113 16.0593 28.0659 16.1137 28.6095 16.1137Z" fill="white"/>
<path d="M46.8014 24.2032C45.2357 24.2032 43.92 23.8226 42.8545 23.0615C41.8107 22.2787 41.017 21.2675 40.4733 20.028C39.9514 18.7667 39.6905 17.4184 39.6905 15.9832C39.6905 14.3523 40.0493 12.8518 40.7669 11.4818C41.5063 10.1118 42.5174 9.01367 43.8004 8.18732C45.1052 7.33923 46.5839 6.91519 48.2366 6.91519C48.7368 6.91519 49.2913 6.96955 49.9002 7.07828C50.5308 7.16527 51.1397 7.33923 51.7268 7.60018C52.314 7.83939 52.7924 8.16558 53.162 8.57875C53.5535 8.99192 53.7492 9.52469 53.7492 10.1771C53.7492 10.6555 53.5752 11.0252 53.2273 11.2861C52.8793 11.5471 52.4553 11.6775 51.9552 11.6775C51.4332 11.6775 50.9657 11.5471 50.5525 11.2861C50.1394 11.0034 49.7262 10.7316 49.313 10.4706C48.8999 10.1879 48.4323 10.0466 47.9104 10.0466C47.1928 10.0466 46.5404 10.2641 45.9533 10.699C45.3662 11.1339 44.866 11.6884 44.4528 12.3625C44.0397 13.0367 43.7135 13.7543 43.4743 14.5154C43.2568 15.2547 43.1481 15.9506 43.1481 16.603C43.1481 17.712 43.3655 18.571 43.8004 19.1799C44.2571 19.767 44.866 20.1802 45.6271 20.4194C46.41 20.6368 47.2798 20.7456 48.2366 20.7456C49.1282 20.7456 49.9545 20.5716 50.7156 20.2237C51.4985 19.8757 52.2813 19.5169 53.0642 19.1472H53.7166C54.6951 19.1472 55.1844 19.6365 55.1844 20.6151C55.1844 21.2022 54.9561 21.7024 54.4994 22.1156C54.0645 22.5287 53.4991 22.8767 52.8032 23.1594C52.1074 23.4203 51.368 23.6269 50.5852 23.7791C49.8023 23.9313 49.0738 24.0401 48.3997 24.1053C47.7256 24.1705 47.1928 24.2032 46.8014 24.2032Z" fill="white"/>
<path d="M60.211 25.0186C59.8196 25.0186 59.526 24.8882 59.3303 24.6272C59.1346 24.3663 59.0041 24.0618 58.9389 23.7139C58.8737 23.3442 58.8084 23.018 58.7432 22.7353V20.3215C58.7432 19.1038 58.7975 17.8751 58.9063 16.6356C59.015 15.3743 59.0694 14.1457 59.0694 12.9497C59.0694 12.3843 59.015 11.8406 58.9063 11.3187C58.7975 10.7968 58.7432 10.2641 58.7432 9.72041V8.8397C58.9171 8.51351 59.1455 8.27431 59.4282 8.12209C59.7326 7.96986 60.0479 7.89375 60.3741 7.89375C60.8525 7.89375 61.2113 8.0351 61.4505 8.3178C61.6897 8.57875 61.8528 8.89406 61.9398 9.26374C62.0485 9.63342 62.1464 9.97048 62.2334 10.2749C62.3204 10.5576 62.4617 10.7207 62.6574 10.7642C63.2881 10.351 63.8861 9.94874 64.4515 9.55731C65.0386 9.16589 65.6475 8.85057 66.2781 8.61137C66.9305 8.35042 67.6481 8.21994 68.431 8.21994C68.8224 8.21994 69.2356 8.30693 69.6705 8.48089C70.1271 8.65486 70.5186 8.90494 70.8448 9.23112C71.1709 9.53557 71.334 9.91612 71.334 10.3728C71.334 10.9382 71.1057 11.3513 70.649 11.6123C70.2141 11.8732 69.801 12.0037 69.4095 12.0037C69.1486 12.0037 68.8985 11.9494 68.6593 11.8406C68.4201 11.7319 68.17 11.6775 67.9091 11.6775C67.148 11.6775 66.4303 11.8732 65.7562 12.2647C65.1038 12.6344 64.5276 13.0801 64.0274 13.602C63.5273 14.1239 63.125 14.6132 62.8205 15.0699C62.7335 15.2656 62.6683 15.5918 62.6248 16.0485C62.5813 16.5051 62.5487 17.027 62.527 17.6142C62.5052 18.1796 62.4835 18.7341 62.4617 19.2777C62.4617 19.8214 62.4508 20.2889 62.4291 20.6803C62.4074 21.3979 62.3312 22.0938 62.2008 22.7679C62.092 23.4203 61.8855 23.964 61.581 24.3989C61.2766 24.812 60.8199 25.0186 60.211 25.0186Z" fill="white"/>
<path d="M76.6924 24.3663C75.7574 24.3663 74.9745 24.1705 74.3439 23.7791C73.735 23.3659 73.2566 22.8332 72.9087 22.1808C72.5607 21.5284 72.3107 20.8217 72.1584 20.0606C72.028 19.2777 71.9627 18.5057 71.9627 17.7446V16.1463C71.9627 16.0811 71.9953 15.831 72.0606 15.3961C72.1258 14.9394 72.191 14.4501 72.2563 13.9282C72.3433 13.4063 72.4085 13.0149 72.452 12.754C72.5172 12.4495 72.5933 12.069 72.6803 11.6123C72.7891 11.1339 72.9195 10.6664 73.0718 10.2097C73.2457 9.73128 73.4632 9.33986 73.7241 9.03541C74.0068 8.70922 74.3439 8.54613 74.7353 8.54613C75.3225 8.54613 75.7682 8.7201 76.0727 9.06803C76.3989 9.41597 76.562 9.84001 76.562 10.3402C76.562 10.7533 76.4967 11.1556 76.3663 11.5471C76.2575 11.9385 76.1597 12.3408 76.0727 12.754C75.9205 13.5803 75.7682 14.4066 75.616 15.233C75.4855 16.0593 75.4203 16.8965 75.4203 17.7446C75.4203 18.0491 75.4421 18.4405 75.4855 18.9189C75.529 19.3973 75.6486 19.8214 75.8444 20.191C76.0401 20.5607 76.3771 20.7456 76.8555 20.7456C77.2252 20.7456 77.6601 20.5064 78.1603 20.028C78.6822 19.5495 79.2258 18.9298 79.7912 18.1687C80.3784 17.4076 80.9655 16.5812 81.5527 15.6897C82.1398 14.7763 82.6834 13.8956 83.1836 13.0475C83.7055 12.1777 84.1513 11.4166 84.521 10.7642C84.8906 10.0901 85.1516 9.62255 85.3038 9.3616C85.4778 9.1224 85.6626 8.92668 85.8583 8.77446C86.054 8.62224 86.3041 8.54613 86.6086 8.54613C87.6306 8.54613 88.2395 9.02454 88.4352 9.98136V11.1556C88.4352 12.1125 88.4026 13.0693 88.3374 14.0261C88.2939 14.9612 88.2721 15.8745 88.2721 16.7661V18.6906C88.3374 19.0385 88.4787 19.3538 88.6962 19.6365C88.9136 19.9192 89.1093 20.2019 89.2833 20.4846C89.479 20.7456 89.5769 21.0609 89.5769 21.4306C89.5769 21.9307 89.4247 22.3548 89.1202 22.7027C88.8158 23.0506 88.4135 23.2246 87.9133 23.2246C87.2609 23.2246 86.739 23.0071 86.3476 22.5722C85.9562 22.1156 85.6517 21.5828 85.4343 20.9739C85.3038 20.5825 85.1516 20.0823 84.9776 19.4734C84.8254 18.8428 84.6732 18.223 84.521 17.6142C84.1948 18.1796 83.8251 18.7449 83.4119 19.3103C83.0205 19.854 82.6073 20.3868 82.1724 20.9087C81.4765 21.7785 80.6611 22.5722 79.726 23.2898C78.7909 24.0074 77.7797 24.3663 76.6924 24.3663Z" fill="white"/>
<path d="M100.873 24.0401C100.243 24.0401 99.7861 23.7574 99.5034 23.192C99.2207 22.6048 99.0794 22.0177 99.0794 21.4306C99.5578 19.0168 99.8622 16.6465 99.9927 14.3197C100.123 11.9711 100.199 9.4812 100.221 6.84995C99.373 6.8717 98.6662 6.90432 98.1008 6.94781C97.5354 6.9913 96.97 7.01304 96.4047 7.01304H94.317C93.7951 6.90432 93.382 6.7086 93.0775 6.42591C92.7948 6.14321 92.6535 5.73004 92.6535 5.18639C92.6535 4.44703 92.8601 3.95775 93.2732 3.71855C93.7082 3.45759 94.2192 3.32712 94.8063 3.32712C94.9368 3.32712 95.0673 3.32712 95.1978 3.32712C95.3282 3.32712 95.4587 3.33799 95.5892 3.35974C96.0024 3.31625 96.633 3.26188 97.4811 3.19664C98.3292 3.10966 99.2425 3.03355 100.221 2.96831C101.2 2.88133 102.102 2.80522 102.928 2.73998C103.755 2.67474 104.364 2.62038 104.755 2.57689H106.06C106.538 2.57689 107.114 2.60951 107.789 2.67474C108.484 2.73998 109.169 2.88133 109.844 3.09879C110.518 3.2945 111.072 3.59894 111.507 4.01212C111.964 4.42529 112.192 4.97981 112.192 5.67567C112.192 6.08885 112.04 6.50202 111.735 6.91519C111.431 7.30662 111.04 7.50233 110.561 7.50233C110.3 7.50233 110.028 7.41534 109.746 7.24138C109.463 7.04566 109.191 6.91519 108.93 6.84995C108.365 6.67598 107.778 6.57813 107.169 6.55638C106.56 6.53464 105.973 6.52376 105.407 6.52376H104.135L104.005 6.62162C104.005 6.90432 103.994 7.36098 103.972 7.99161C103.95 8.62224 103.929 9.33985 103.907 10.1445C103.885 10.9273 103.863 11.7102 103.842 12.493C103.842 13.2759 103.842 13.95 103.842 14.5154C103.842 15.4504 103.777 16.3964 103.646 17.3532C103.537 18.2883 103.45 18.995 103.385 19.4734C103.342 19.8214 103.255 20.2454 103.124 20.7456C102.994 21.224 102.852 21.6806 102.7 22.1156C102.548 22.5505 102.385 22.8984 102.211 23.1594C102.059 23.4203 101.874 23.6378 101.656 23.8117C101.439 23.964 101.178 24.0401 100.873 24.0401Z" fill="white"/>
<path d="M123.796 25.1817C122.23 25.1817 120.784 24.9425 119.457 24.4641C118.153 23.964 117.098 23.1811 116.293 22.1156C115.489 21.0283 115.087 19.6257 115.087 17.9077C115.087 16.603 115.293 15.3308 115.706 14.0913C116.141 12.8518 116.761 11.7319 117.566 10.7316C118.37 9.70953 119.338 8.90494 120.469 8.3178C121.599 7.70891 122.872 7.40447 124.285 7.40447C125.242 7.40447 126.133 7.60018 126.96 7.99161C127.808 8.36129 128.482 8.91581 128.982 9.65517C129.504 10.3728 129.765 11.2535 129.765 12.2973C129.765 13.2976 129.558 14.2544 129.145 15.1677C128.732 16.0811 128.167 16.8965 127.449 17.6142C126.731 18.3318 125.916 18.8972 125.003 19.3103C124.111 19.7018 123.176 19.8975 122.197 19.8975C122.045 19.8975 121.708 19.8649 121.186 19.7996C120.664 19.7126 120.251 19.6257 119.947 19.5387C119.729 19.4952 119.555 19.4082 119.425 19.2777C119.381 19.256 119.305 19.2234 119.197 19.1799C119.088 19.1146 119.012 19.082 118.968 19.082C119.12 19.7126 119.436 20.2454 119.914 20.6803C120.414 21.0935 120.98 21.3979 121.61 21.5937C122.263 21.7894 122.882 21.8872 123.47 21.8872C123.883 21.8872 124.296 21.8655 124.709 21.822C125.144 21.7568 125.601 21.7241 126.079 21.7241C126.558 21.7241 126.971 21.8546 127.319 22.1156C127.667 22.3765 127.841 22.8006 127.841 23.3877C127.841 23.8661 127.688 24.2358 127.384 24.4967C127.101 24.7577 126.731 24.9316 126.275 25.0186C125.84 25.1056 125.394 25.1491 124.937 25.1491C124.503 25.1709 124.122 25.1817 123.796 25.1817ZM122.197 16.1137C122.85 16.1137 123.491 15.9941 124.122 15.7549C124.774 15.4939 125.307 15.1134 125.72 14.6132C126.155 14.1131 126.373 13.4933 126.373 12.754C126.373 12.1233 126.177 11.6232 125.786 11.2535C125.416 10.8838 124.916 10.699 124.285 10.699C123.72 10.699 123.122 10.8512 122.491 11.1556C121.86 11.4601 121.262 11.8515 120.697 12.3299C120.153 12.8083 119.708 13.3302 119.36 13.8956C119.012 14.4393 118.838 14.972 118.838 15.4939V15.6244C119.403 15.7114 119.969 15.8201 120.534 15.9506C121.099 16.0593 121.654 16.1137 122.197 16.1137Z" fill="white"/>
<path d="M140.389 24.2032C138.824 24.2032 137.508 23.8226 136.442 23.0615C135.399 22.2787 134.605 21.2675 134.061 20.028C133.539 18.7667 133.278 17.4184 133.278 15.9832C133.278 14.3523 133.637 12.8518 134.355 11.4818C135.094 10.1118 136.105 9.01367 137.388 8.18732C138.693 7.33923 140.172 6.91519 141.825 6.91519C142.325 6.91519 142.879 6.96955 143.488 7.07828C144.119 7.16527 144.728 7.33923 145.315 7.60018C145.902 7.83939 146.38 8.16558 146.75 8.57875C147.141 8.99192 147.337 9.52469 147.337 10.1771C147.337 10.6555 147.163 11.0252 146.815 11.2861C146.467 11.5471 146.043 11.6775 145.543 11.6775C145.021 11.6775 144.554 11.5471 144.141 11.2861C143.727 11.0034 143.314 10.7316 142.901 10.4706C142.488 10.1879 142.02 10.0466 141.498 10.0466C140.781 10.0466 140.128 10.2641 139.541 10.699C138.954 11.1339 138.454 11.6884 138.041 12.3625C137.628 13.0367 137.301 13.7543 137.062 14.5154C136.845 15.2547 136.736 15.9506 136.736 16.603C136.736 17.712 136.953 18.571 137.388 19.1799C137.845 19.767 138.454 20.1802 139.215 20.4194C139.998 20.6368 140.868 20.7456 141.825 20.7456C142.716 20.7456 143.542 20.5716 144.304 20.2237C145.086 19.8757 145.869 19.5169 146.652 19.1472H147.305C148.283 19.1472 148.772 19.6365 148.772 20.6151C148.772 21.2022 148.544 21.7024 148.087 22.1156C147.652 22.5287 147.087 22.8767 146.391 23.1594C145.695 23.4203 144.956 23.6269 144.173 23.7791C143.39 23.9313 142.662 24.0401 141.988 24.1053C141.314 24.1705 140.781 24.2032 140.389 24.2032Z" fill="white"/>
<path d="M154.125 24.5294C153.516 24.5294 153.06 24.3228 152.755 23.9096C152.473 23.4747 152.331 22.9745 152.331 22.4091C152.331 21.1044 152.407 19.7779 152.559 18.4296C152.733 17.0814 152.82 15.7766 152.82 14.5154C152.82 12.3408 152.733 10.2206 152.559 8.1547C152.407 6.08885 152.331 3.96862 152.331 1.79404V0.945945C152.483 0.598012 152.69 0.358807 152.951 0.228331C153.234 0.0761102 153.527 0 153.832 0C154.332 0 154.734 0.173967 155.039 0.5219C155.365 0.869835 155.615 1.29388 155.789 1.79404C155.963 2.29419 156.082 2.79435 156.148 3.2945C156.235 3.79466 156.278 4.20783 156.278 4.53402V15.3635L156.474 15.5592L156.506 15.5266C157.094 14.9394 157.648 14.2762 158.17 13.5368C158.714 12.7974 159.268 12.0907 159.833 11.4166C160.421 10.7207 161.062 10.1445 161.758 9.68779C162.476 9.23112 163.302 9.00279 164.237 9.00279C165.063 9.00279 165.77 9.22025 166.357 9.65517C166.966 10.0901 167.445 10.6555 167.792 11.3513C168.14 12.0472 168.369 12.7757 168.477 13.5368L169.456 20.452V21.4306C169.456 21.7785 169.434 22.1482 169.391 22.5396C169.347 22.9093 169.217 23.2246 168.999 23.4855C168.804 23.7465 168.456 23.877 167.956 23.877C167.39 23.877 166.944 23.6595 166.618 23.2246C166.314 22.7679 166.096 22.2134 165.966 21.561C165.835 20.9087 165.748 20.2672 165.705 19.6365C165.661 19.0059 165.618 18.5057 165.574 18.1361C165.553 17.9838 165.52 17.7011 165.477 17.288C165.455 16.8748 165.411 16.3964 165.346 15.8527C165.281 15.3091 165.194 14.7872 165.085 14.287C164.976 13.7651 164.835 13.3411 164.661 13.0149C164.509 12.667 164.313 12.493 164.074 12.493C163.704 12.493 163.335 12.6452 162.965 12.9497C162.595 13.2541 162.291 13.5694 162.052 13.8956C160.921 15.3743 159.833 16.94 158.79 18.5927C157.768 20.2237 156.746 21.822 155.724 23.3877C155.55 23.6704 155.332 23.9313 155.071 24.1705C154.81 24.4097 154.495 24.5294 154.125 24.5294Z" fill="white"/>
<path d="M176.8 25.0186C176.169 25.0186 175.68 24.8338 175.332 24.4641C174.984 24.0727 174.734 23.5943 174.582 23.0289C174.451 22.4417 174.364 21.8437 174.321 21.2348C174.299 20.626 174.288 20.1041 174.288 19.6691V16.3094C174.288 14.8742 174.364 13.3955 174.517 11.8733C174.669 10.351 174.756 8.73097 174.777 7.01304C173.973 6.96955 173.342 6.81733 172.886 6.55638C172.451 6.27369 172.233 5.70829 172.233 4.8602C172.233 4.20783 172.505 3.71855 173.049 3.39236C173.592 3.04442 174.19 2.82696 174.843 2.73998C175.691 2.54427 176.593 2.42467 177.55 2.38117C178.529 2.31594 179.453 2.21808 180.323 2.0876H180.453C181.345 2.0876 182.302 2.15284 183.324 2.28332C184.346 2.39205 185.335 2.62038 186.292 2.96831C187.27 3.2945 188.119 3.78378 188.836 4.43616C189.554 5.06679 190.043 5.91488 190.304 6.98043V8.08947C190.304 9.30724 190 10.4598 189.391 11.5471C188.782 12.6344 187.977 13.602 186.977 14.4501C185.998 15.2765 184.922 15.9289 183.748 16.4073C182.595 16.8857 181.453 17.1249 180.323 17.1249C179.996 17.1249 179.67 17.114 179.344 17.0923C179.018 17.0488 178.605 17.0161 178.105 16.9944C178.126 18.06 178.159 18.9733 178.202 19.7344C178.246 20.4955 178.268 21.2349 178.268 21.9525C178.268 22.3439 178.235 22.7788 178.17 23.2572C178.126 23.7356 177.996 24.1488 177.778 24.4967C177.583 24.8447 177.257 25.0186 176.8 25.0186ZM178.105 13.0149H181.106C181.519 13.0149 182.03 12.8736 182.639 12.5909C183.269 12.2864 183.889 11.9059 184.498 11.4492C185.129 10.9708 185.65 10.4706 186.064 9.94874C186.499 9.40509 186.716 8.89406 186.716 8.41566C186.716 7.89375 186.509 7.45884 186.096 7.1109C185.705 6.76297 185.248 6.50202 184.726 6.32805C184.204 6.15408 183.759 6.0671 183.389 6.0671H179.051L178.757 6.36067C178.648 7.18701 178.54 7.94812 178.431 8.64399C178.322 9.31811 178.235 10.0031 178.17 10.699C178.126 11.3948 178.105 12.1668 178.105 13.0149Z" fill="white"/>
<path d="M202.75 25.5079C200.923 25.5079 199.292 25.0947 197.857 24.2684C196.422 23.4421 195.291 22.3004 194.465 20.8434C193.638 19.3647 193.225 17.6903 193.225 15.8201C193.225 14.6893 193.399 13.5042 193.747 12.2647C194.095 11.0034 194.584 9.78565 195.215 8.61137C195.867 7.43709 196.639 6.37154 197.531 5.41472C198.444 4.43616 199.466 3.66418 200.597 3.09879C201.728 2.53339 202.935 2.2507 204.218 2.2507C205.196 2.2507 206.164 2.44641 207.121 2.83784C208.099 3.22926 208.904 3.8164 209.535 4.59925C210.187 5.36036 210.513 6.31718 210.513 7.46971V8.44827C210.361 8.81795 210.154 9.04628 209.893 9.13327C209.632 9.22025 209.339 9.26374 209.013 9.26374C208.556 9.26374 208.197 9.14414 207.936 8.90494C207.697 8.66573 207.491 8.37216 207.317 8.02423C207.143 7.67629 206.958 7.32836 206.762 6.98043C206.566 6.63249 206.294 6.33892 205.947 6.09972C205.62 5.86051 205.153 5.74091 204.544 5.74091C203.37 5.74091 202.315 6.03448 201.38 6.62162C200.467 7.18701 199.684 7.93725 199.031 8.87232C198.379 9.80739 197.879 10.8186 197.531 11.9059C197.183 12.9714 197.009 14.0043 197.009 15.0047C197.009 15.7658 197.129 16.5486 197.368 17.3532C197.607 18.1361 197.944 18.8754 198.379 19.5713C198.836 20.2454 199.39 20.7999 200.043 21.2348C200.695 21.648 201.434 21.8546 202.261 21.8546C203.261 21.8546 204.261 21.6698 205.262 21.3001C206.262 20.9304 207.132 20.4085 207.871 19.7344C208.219 19.4082 208.589 19.0929 208.98 18.7884C209.372 18.484 209.817 18.3318 210.317 18.3318C210.796 18.3318 211.209 18.4949 211.557 18.8211C211.927 19.1255 212.111 19.5713 212.111 20.1584C212.111 20.3976 212.046 20.6368 211.916 20.876C211.785 21.1152 211.633 21.3436 211.459 21.561C211.307 21.7568 211.133 21.9416 210.937 22.1156C210.742 22.2678 210.546 22.4309 210.35 22.6048C209.263 23.5399 208.089 24.2575 206.827 24.7577C205.566 25.2578 204.207 25.5079 202.75 25.5079Z" fill="white"/>
<path d="M223.878 25.1817C223.378 25.1817 222.802 25.16 222.149 25.1165C221.519 25.0947 220.932 24.9643 220.388 24.7251C219.844 24.4859 219.442 24.0836 219.181 23.5182V22.2134C219.181 21.735 219.181 21.311 219.181 20.9413C219.203 20.5716 219.257 20.1476 219.344 19.6691V10.6337C219.344 10.5685 219.312 10.3619 219.246 10.014C219.203 9.6443 219.181 9.38335 219.181 9.23112C219.181 8.92668 219.127 8.62224 219.018 8.3178C218.931 8.01336 218.888 7.71979 218.888 7.43709C218.888 7.37185 218.866 7.274 218.822 7.14352C218.801 6.9913 218.714 6.84995 218.561 6.71948C218.279 6.82821 218.039 6.91519 217.844 6.98043C217.648 7.02392 217.409 7.04566 217.126 7.04566C216.735 7.04566 216.332 6.8717 215.919 6.52376C215.528 6.15408 215.332 5.76266 215.332 5.34948C215.332 4.63187 215.56 4.06648 216.017 3.65331C216.474 3.21839 217.039 2.8922 217.713 2.67474C218.409 2.43554 219.105 2.26157 219.801 2.15284C220.518 2.04411 221.138 1.968 221.66 1.92451C221.943 1.92451 222.323 1.91364 222.802 1.89189C223.28 1.8484 223.726 1.81578 224.139 1.79404C224.574 1.77229 224.813 1.76142 224.857 1.76142C226.357 1.80491 227.825 2.07673 229.26 2.57689C230.696 3.0553 231.989 3.75116 233.142 4.66449C234.316 5.55607 235.24 6.64337 235.915 7.92637C236.61 9.20938 236.958 10.6555 236.958 12.2647C236.958 13.9609 236.589 15.5809 235.849 17.1249C235.132 18.6688 234.142 20.0497 232.881 21.2675C231.641 22.4852 230.239 23.4421 228.673 24.1379C227.129 24.8338 225.531 25.1817 223.878 25.1817ZM223.715 21.2022C224.846 21.2022 225.977 20.9413 227.107 20.4194C228.26 19.8975 229.315 19.2016 230.272 18.3318C231.228 17.4402 232 16.4399 232.587 15.3308C233.175 14.2218 233.468 13.091 233.468 11.9385C233.468 10.8294 233.164 9.87263 232.555 9.06803C231.946 8.26343 231.163 7.61106 230.206 7.1109C229.271 6.589 228.271 6.20845 227.205 5.96924C226.14 5.70829 225.139 5.57782 224.204 5.57782C224.096 5.57782 223.965 5.57782 223.813 5.57782C223.683 5.55607 223.53 5.5452 223.356 5.5452C223.161 5.5452 222.976 5.56694 222.802 5.61044C222.628 5.65393 222.486 5.74091 222.378 5.87139C222.704 7.45884 222.911 8.98105 222.998 10.438C223.106 11.895 223.161 13.4172 223.161 15.0047C223.161 15.8745 223.128 16.7661 223.063 17.6794C223.019 18.571 222.998 19.4952 222.998 20.452V21.0391C223.193 21.1479 223.432 21.2022 223.715 21.2022Z" fill="white"/>
</svg>
